<?xml version="1.0" standalone="no"?>
<!DOCTYPE svg PUBLIC "-//W3C//DTD SVG 20010904//EN"
 "http://www.w3.org/TR/2001/REC-SVG-20010904/DTD/svg10.dtd">
<svg version="1.0" xmlns="http://www.w3.org/2000/svg"
 width="48.000000pt" height="48.000000pt" viewBox="0 0 48.000000 48.000000"
 preserveAspectRatio="xMidYMid meet">
<g transform="translate(0.000000,48.000000) scale(0.100000,-0.100000)"
fill="#000000" stroke="none">
<path d="M86 435 c-13 -14 -16 -41 -16 -156 0 -187 19 -184 22 4 l3 142 148 3
147 3 0 -156 0 -155 -148 0 c-155 0 -172 -4 -172 -45 0 -41 16 -45 182 -45
211 0 211 19 1 22 -150 3 -158 4 -158 23 0 19 8 20 155 25 l155 5 0 170 0 170
-152 3 c-127 2 -154 0 -167 -13z"/>
<path d="M160 350 c0 -6 35 -10 85 -10 50 0 85 4 85 10 0 6 -35 10 -85 10 -50
0 -85 -4 -85 -10z"/>
<path d="M160 300 c0 -5 25 -10 55 -10 30 0 55 5 55 10 0 6 -25 10 -55 10 -30
0 -55 -4 -55 -10z"/>
</g>
</svg>
